<svg xmlns="http://www.w3.org/2000/svg" width="1200" height="206" viewBox="0 0 1200 206" fill="none" role="img"><rect x="0" y="0" width="288" height="206" rx="18" fill="#0F1611" stroke="#1F2C23" stroke-width="1"/><rect x="22" y="22" width="54" height="54" rx="15" fill="#0D1410" stroke="#223029" stroke-width="1"/><circle cx="49" cy="49" r="9.9" stroke="#E8B339" stroke-width="4.9" fill="none"/><path d="M 44.3 31.6 A 18.1 18.1 0 0 1 59.4 34.2" stroke="#E8B339" stroke-width="4.6" fill="none" stroke-linecap="round"/><path d="M 65.4 56.6 A 18.1 18.1 0 0 1 53.7 66.4" stroke="#E8B339" stroke-width="4.6" fill="none" stroke-linecap="round"/><path d="M 34.2 59.4 A 18.1 18.1 0 0 1 31.6 44.3" stroke="#E8B339" stroke-width="4.6" fill="none" stroke-linecap="round"/><text x="22" y="112" font-family="-apple-system,BlinkMacSystemFont,'Segoe UI',Roboto,'Helvetica Neue',Arial,sans-serif" font-size="20" font-weight="700" fill="#E9EFEA">Licaverse</text><text x="22" y="133" font-family="ui-monospace,'SF Mono',SFMono-Regular,Menlo,Consolas,monospace" font-size="9.5" font-weight="700" fill="#E8B339" letter-spacing="1.5">LEARNING OS</text><text x="22" y="160" font-family="-apple-system,BlinkMacSystemFont,'Segoe UI',Roboto,'Helvetica Neue',Arial,sans-serif" font-size="12.5" font-weight="400" fill="#8DA394">A learning operating system,</text><text x="22" y="178" font-family="-apple-system,BlinkMacSystemFont,'Segoe UI',Roboto,'Helvetica Neue',Arial,sans-serif" font-size="12.5" font-weight="400" fill="#8DA394">designed thesis → launch.</text><rect x="304" y="0" width="288" height="206" rx="18" fill="#0F1611" stroke="#1F2C23" stroke-width="1"/><rect x="326" y="22" width="54" height="54" rx="15" fill="#0D1410" stroke="#223029" stroke-width="1"/><path d="M 355 35.18 Q 357.5194 47.4806 369.82 50 Q 357.5194 52.5194 355 64.82 Q 352.4806 52.5194 340.18 50 Q 352.4806 47.4806 355 35.18 Z" fill="#E8B339"/><path d="M 339.32 31.52 Q 340.289 36.251 345.02 37.22 Q 340.289 38.189 339.32 42.92 Q 338.351 38.189 333.62 37.22 Q 338.351 36.251 339.32 31.52 Z" fill="#E8B339"/><path d="M 367.44 57.36 Q 368.2798 61.4602 372.38 62.3 Q 368.2798 63.139799999999994 367.44 67.24 Q 366.6002 63.139799999999994 362.5 62.3 Q 366.6002 61.4602 367.44 57.36 Z" fill="#E8B339"/><text x="326" y="112" font-family="-apple-system,BlinkMacSystemFont,'Segoe UI',Roboto,'Helvetica Neue',Arial,sans-serif" font-size="20" font-weight="700" fill="#E9EFEA">Uki AI</text><text x="326" y="133" font-family="ui-monospace,'SF Mono',SFMono-Regular,Menlo,Consolas,monospace" font-size="9.5" font-weight="700" fill="#E8B339" letter-spacing="1.5">FIGMA PLUGIN</text><text x="326" y="160" font-family="-apple-system,BlinkMacSystemFont,'Segoe UI',Roboto,'Helvetica Neue',Arial,sans-serif" font-size="12.5" font-weight="400" fill="#8DA394">Audits designs for a11y,</text><text x="326" y="178" font-family="-apple-system,BlinkMacSystemFont,'Segoe UI',Roboto,'Helvetica Neue',Arial,sans-serif" font-size="12.5" font-weight="400" fill="#8DA394">consistency and best practice.</text><rect x="608" y="0" width="288" height="206" rx="18" fill="#0F1611" stroke="#1F2C23" stroke-width="1"/><rect x="630" y="22" width="54" height="54" rx="15" fill="#0D1410" stroke="#223029" stroke-width="1"/><g transform="translate(642.9 44.4) rotate(288.0)"><rect x="-2.6" y="-4.8" width="5.1" height="9.5" rx="1.8" fill="#E6E62E"/></g><g transform="translate(645.8 39.3) rotate(310.7)"><rect x="-2.6" y="-4.5" width="5.1" height="9.0" rx="1.8" fill="#E6E62E"/></g><g transform="translate(650.3 35.8) rotate(333.3)"><rect x="-2.6" y="-4.2" width="5.1" height="8.5" rx="1.8" fill="#E6E62E"/></g><g transform="translate(656.0 34.2) rotate(356.0)"><rect x="-2.6" y="-4.0" width="5.1" height="7.9" rx="1.8" fill="#E6E62E"/></g><g transform="translate(661.7 35.0) rotate(378.7)"><rect x="-2.6" y="-3.7" width="5.1" height="7.4" rx="1.8" fill="#E6E62E"/></g><g transform="translate(666.8 37.9) rotate(401.3)"><rect x="-2.6" y="-3.4" width="5.1" height="6.9" rx="1.8" fill="#E6E62E"/></g><g transform="translate(670.3 42.5) rotate(424.0)"><rect x="-2.6" y="-3.2" width="5.1" height="6.4" rx="1.8" fill="#E6E62E"/></g><g transform="translate(671.8 48.1) rotate(446.7)"><rect x="-2.6" y="-2.9" width="5.1" height="5.8" rx="1.8" fill="#E6E62E"/></g><g transform="translate(671.0 53.9) rotate(469.3)"><rect x="-2.6" y="-2.7" width="5.1" height="5.3" rx="1.8" fill="#E6E62E"/></g><g transform="translate(668.0 58.9) rotate(492.0)"><rect x="-2.6" y="-2.4" width="5.1" height="4.8" rx="1.8" fill="#E6E62E"/></g><text x="630" y="112" font-family="-apple-system,BlinkMacSystemFont,'Segoe UI',Roboto,'Helvetica Neue',Arial,sans-serif" font-size="20" font-weight="700" fill="#E9EFEA">Build365</text><text x="630" y="133" font-family="ui-monospace,'SF Mono',SFMono-Regular,Menlo,Consolas,monospace" font-size="9.5" font-weight="700" fill="#E6E62E" letter-spacing="1.5">DEV TOOL</text><text x="630" y="160" font-family="-apple-system,BlinkMacSystemFont,'Segoe UI',Roboto,'Helvetica Neue',Arial,sans-serif" font-size="12.5" font-weight="400" fill="#8DA394">Shipping infrastructure for</text><text x="630" y="178" font-family="-apple-system,BlinkMacSystemFont,'Segoe UI',Roboto,'Helvetica Neue',Arial,sans-serif" font-size="12.5" font-weight="400" fill="#8DA394">lean teams, around the clock.</text><rect x="912" y="0" width="288" height="206" rx="18" fill="#0F1611" stroke="#1F2C23" stroke-width="1"/><rect x="934" y="22" width="54" height="54" rx="15" fill="#0D1410" stroke="#223029" stroke-width="1"/><path d="M 961 35 L 948 58 L 974 58 Z" stroke="#3FD35B" stroke-width="2" fill="none" opacity="0.5"/><circle cx="961" cy="35" r="4.9" fill="#3FD35B"/><circle cx="948" cy="58" r="4.9" fill="#3FD35B"/><circle cx="974" cy="58" r="4.9" fill="#3FD35B"/><text x="934" y="112" font-family="-apple-system,BlinkMacSystemFont,'Segoe UI',Roboto,'Helvetica Neue',Arial,sans-serif" font-size="20" font-weight="700" fill="#E9EFEA">W3Share</text><text x="934" y="133" font-family="ui-monospace,'SF Mono',SFMono-Regular,Menlo,Consolas,monospace" font-size="9.5" font-weight="700" fill="#3FD35B" letter-spacing="1.5">WEB3 STORAGE</text><text x="934" y="160" font-family="-apple-system,BlinkMacSystemFont,'Segoe UI',Roboto,'Helvetica Neue',Arial,sans-serif" font-size="12.5" font-weight="400" fill="#8DA394">Decentralised file storage</text><text x="934" y="178" font-family="-apple-system,BlinkMacSystemFont,'Segoe UI',Roboto,'Helvetica Neue',Arial,sans-serif" font-size="12.5" font-weight="400" fill="#8DA394">on IPFS + blockchain.</text></svg>